<?xml version="1.0" encoding="UTF-8"?>
<svg id="Capa_1" xmlns="http://www.w3.org/2000/svg" version="1.1" viewBox="0 0 14 6.73">
  <!-- Generator: Adobe Illustrator 29.1.0, SVG Export Plug-In . SVG Version: 2.1.0 Build 142)  -->
  <defs>
    <style>
      .st0 {
        fill: #fff;
      }
    </style>
  </defs>
  <path class="st0" d="M6.05,3.8c-.57-.8-1.91-.83-2.81-.98-.46-.07-.94-.12-1.32-.23-.14-.04-.27-.1-.38-.19-.32-.24-.32-.73-.03-1,.19-.19.45-.31.71-.37.75-.15,1.74-.13,2.35.41.21.18.29.49.57.58.22.07.55.07.74.01.3-.08.14-.44.04-.64C5.56.62,4.7.21,3.9.07,2.61-.14.57.04.15,1.54,0,2.09.18,2.8.64,3.15c.68.52,1.58.57,2.4.69.47.06.91.11,1.29.2.28.07.58.19.69.47.14.29.02.64-.22.85-.52.43-1.23.44-1.9.41-.62-.05-1.29-.29-1.62-.83-.09-.15-.17-.31-.35-.38-.23-.09-.6-.08-.8-.01-.31.13-.06.59.05.8.22.4.56.7.98.92.9.48,2.03.53,3.01.37.78-.15,1.62-.54,1.95-1.31.2-.46.19-1.11-.08-1.53h0s0-.01,0-.01Z"/>
  <path class="st0" d="M10.82.14c-.3-.04-.68-.01-1-.02-.11,0-.31,0-.36.06-.44.79-2.64,5.4-3.09,6.33-.03.08.08.09.19.1.23,0,.61.04.87-.04.26-.11.33-.44.47-.67.16-.33.32-.68.45-.95.53-1.1,1.36-2.91,1.8-3.79.08-.11.13.09.24.31.07.15.17.35.27.57.69,1.47,1.21,2.56,1.88,3.98.17.36.26.62.7.61.21,0,.47,0,.61,0,.05,0,.15-.02.16-.05-.26-.66-1.92-3.95-2.53-5.26-.24-.5-.43-.88-.51-1.04-.03-.06-.07-.09-.14-.1h0s0,0,0,0ZM7.9,4.27c-.04.18-.02.43-.02.63.01.14.02.2.13.22.71.01,3.3,0,4.12,0,.14,0,.21,0,.24-.08.05-.21.04-.51.01-.74-.03-.13-.1-.12-.27-.12h-3.26c-.39,0-.69,0-.83,0-.06,0-.1.03-.12.09h0Z"/>
</svg>