<?xml version="1.0" encoding="UTF-8"?>
<svg id="Capa_1" xmlns="http://www.w3.org/2000/svg" version="1.1" viewBox="0 0 16 16">
  <!-- Generator: Adobe Illustrator 29.1.0, SVG Export Plug-In . SVG Version: 2.1.0 Build 142)  -->
  <defs>
    <style>
      .st0 {
        fill: #424242;
      }

      .st1 {
        fill: #fcfcfc;
      }
    </style>
  </defs>
  <path class="st1" d="M15.67,13.11c-.38.47-1.42.35-3.19.37-2.48,0-5.24,0-7.76,0-1.77-.18-4.78.71-4.68-1.42C-.06,9.67,0,6.73,0,4.39c.03-.95.14-1.47.57-1.7.38-.19.86-.19,1.34-.21,2.93,0,10.19-.03,12.61.02,2.15,0,1.27,2.59,1.46,4.31-.1,1.86.27,4.86-.27,6.23l-.05.07Z"/>
  <path class="st0" d="M7.05,8.43c-.57-.8-1.91-.83-2.81-.98-.46-.07-.94-.12-1.32-.23-.14-.04-.27-.1-.38-.19-.32-.24-.32-.73-.03-1,.19-.19.45-.31.71-.37.75-.15,1.74-.13,2.35.41.21.18.29.49.57.58.22.07.55.07.74.01.3-.08.14-.44.04-.64-.37-.75-1.23-1.16-2.03-1.31-1.29-.21-3.33-.03-3.75,1.46-.15.56.03,1.26.49,1.61.68.52,1.58.57,2.4.69.47.06.91.11,1.29.2.28.07.58.19.69.47.14.29.02.64-.22.85-.52.43-1.23.44-1.9.41-.62-.05-1.29-.29-1.62-.83-.09-.15-.17-.31-.35-.38-.23-.09-.6-.08-.8-.01-.31.13-.06.59.05.8.22.4.56.7.98.92.9.48,2.03.53,3.01.37.78-.15,1.62-.54,1.95-1.31.2-.46.19-1.11-.08-1.53h0s0-.01,0-.01Z"/>
  <path class="st0" d="M11.82,4.78c-.3-.04-.68-.01-1-.02-.11,0-.31,0-.36.06-.44.79-2.64,5.4-3.09,6.33-.03.08.08.09.19.1.23,0,.61.04.87-.04.26-.11.33-.44.47-.67.16-.33.32-.68.45-.95.53-1.1,1.36-2.91,1.8-3.79.08-.11.13.09.24.31.07.15.17.35.27.57.69,1.47,1.21,2.56,1.88,3.98.17.36.26.62.7.61.21,0,.47,0,.61,0,.05,0,.15-.02.16-.05-.26-.66-1.92-3.95-2.53-5.26-.24-.5-.43-.88-.51-1.04-.03-.06-.07-.09-.14-.1h0s0,0,0,0ZM8.9,8.91c-.04.18-.02.43-.02.63.01.14.02.2.13.22.71.01,3.3,0,4.12,0,.14,0,.21,0,.24-.08.05-.21.04-.51.01-.74-.03-.13-.1-.12-.27-.12h-3.26c-.39,0-.69,0-.83,0-.06,0-.1.03-.12.09h0Z"/>
</svg>