<svg width="139" height="12" viewBox="0 0 139 12" fill="none" xmlns="http://www.w3.org/2000/svg">
<g id="LOGO " clip-path="url(#clip0_1273_75)">
<path id="Vector" d="M7.10173 7.0845H7.06845L2.95888 0.257202H0V11.7428H2.95888V4.91549H2.99216L7.10173 11.7428H10.0606V0.257202H7.10173V7.0845Z" fill="#FFFAF1"/>
<path id="Vector_2" d="M18.8051 7.59793C18.8051 9.09189 18.1476 9.63784 16.8487 9.63784C15.5498 9.63784 14.8922 9.09189 14.8922 7.59793V0.257202H11.9333V7.59793C11.9333 10.4568 13.2978 12 16.8487 12C20.3996 12 21.764 10.4577 21.764 7.59793V0.257202H18.8051V7.59793Z" fill="#FFFAF1"/>
<path id="Vector_3" d="M28.8486 0.257202H23.6378V11.7428H29.013C32.2845 11.7428 34.0927 9.70288 34.0927 6.00837C34.0927 2.31387 32.1191 0.257202 28.8486 0.257202ZM28.4866 9.38162H26.5967V2.61936H28.4866C30.3281 2.61936 31.0673 3.92017 31.0673 6.00837C31.0673 8.09657 30.3281 9.38162 28.4866 9.38162Z" fill="#FFFAF1"/>
<path id="Vector_4" d="M38.3001 7.01946H43.4282V4.65829H38.3001V2.61838H44.2501V0.257202H35.3402V11.7428H44.349V9.38162H38.3001V7.01946Z" fill="#FFFAF1"/>
<path id="Vector_5" d="M55.6722 0.257202H49.9683V11.7428H52.9271V7.58216H55.6722C58.1218 7.58216 59.6507 6.32865 59.6507 3.92017C59.6507 1.5117 58.1218 0.257202 55.6722 0.257202ZM54.9814 5.22099H52.9271V2.61838H54.9814C56 2.61838 56.6252 2.9554 56.6252 3.92017C56.6252 4.88494 56.001 5.22099 54.9814 5.22099Z" fill="#FFFAF1"/>
<path id="Vector_6" d="M68.247 6.44198V6.40946C69.7093 6.0882 70.631 5.14018 70.631 3.53387C70.631 1.44567 69.0527 0.257202 66.4388 0.257202H60.8992V11.7428H63.8581V7.74279H65.6995C68.2147 7.74279 67.1457 11.2609 67.7215 11.7428H70.7954V11.5822C70.1217 11.39 71.1897 6.93964 68.247 6.44198ZM65.8629 5.38162H63.857V2.61838H65.8629C67.0459 2.61838 67.6711 3.03621 67.6711 4C67.6711 4.96378 67.0469 5.38162 65.8629 5.38162Z" fill="#FFFAF1"/>
<path id="Vector_7" d="M77.4514 0C73.72 0 71.6314 2.53856 71.6314 5.99162C71.6314 9.44469 73.719 11.999 77.4514 11.999C81.1837 11.999 83.2713 9.46046 83.2713 5.99162C83.2713 2.52279 81.1505 0 77.4514 0ZM77.4514 9.63883C75.2972 9.63883 74.6569 8 74.6569 5.99261C74.6569 3.98522 75.2982 2.36216 77.4514 2.36216C79.6045 2.36216 80.2459 4.00099 80.2459 5.99261C80.2459 7.98423 79.5883 9.63883 77.4514 9.63883Z" fill="#FFFAF1"/>
<path id="Vector_8" d="M89.3081 7.91919C89.3081 9.01207 89.0449 9.63784 88.0747 9.63784C87.1045 9.63784 86.8423 9.01108 86.8423 7.91919V6.9554H84.2122V7.91919C84.2122 10.1355 85.018 11.999 88.2391 11.999C91.4602 11.999 92.267 10.1355 92.267 7.91919V0.257202H89.3081V7.91919Z" fill="#FFFAF1"/>
<path id="Vector_9" d="M97.1157 7.01946H102.245V4.65829H97.1157V2.61838H103.067V0.257202H94.1569V11.7428H103.165V9.38162H97.1157V7.01946Z" fill="#FFFAF1"/>
<path id="Vector_10" d="M109.674 2.36216C111.237 2.36216 111.762 3.27765 111.976 4.53117H115.001C114.721 1.86351 113.011 0 109.805 0C106.09 0 104.102 2.5218 104.102 6.03991C104.102 9.55802 105.991 11.999 109.724 11.999C112.963 11.999 114.738 10.0714 115.001 7.4373H111.976C111.779 8.72235 111.253 9.63784 109.674 9.63784C107.718 9.63784 107.126 8.15965 107.126 5.99162C107.126 3.8236 107.718 2.36117 109.674 2.36117V2.36216Z" fill="#FFFAF1"/>
<path id="Vector_11" d="M115.378 2.61838H118.798V11.7428H121.757V2.61838H125.16V0.257202H115.378V2.61838Z" fill="#FFFAF1"/>
<path id="Vector_12" d="M138.18 2.99778C137.633 2.03794 136.86 1.28997 135.879 0.77359C134.906 0.260163 133.891 0 132.864 0C131.838 0 130.824 0.260163 129.85 0.77359C128.87 1.28899 128.095 2.03696 127.545 2.99778C126.998 3.95368 126.721 4.96477 126.721 6.00444C126.721 7.0441 126.994 8.03646 127.534 8.98448C128.074 9.93545 128.841 10.6854 129.813 11.2116C130.781 11.7349 131.807 12.001 132.865 12.001C133.923 12.001 134.951 11.7359 135.918 11.2116C136.889 10.6854 137.655 9.93545 138.194 8.98349C138.73 8.03449 139.002 7.03227 139.002 6.00444C139.002 4.9766 138.727 3.95368 138.182 2.99877L138.18 2.99778ZM136.784 8.20005C136.553 8.60803 136.257 8.95886 135.913 9.26238L134.972 7.78615C134.601 7.20867 134.292 6.80562 134.028 6.55137C134.014 6.53856 134 6.52575 133.985 6.51293C134.295 6.40847 134.565 6.24292 134.787 6.01823C135.15 5.64967 135.333 5.20917 135.333 4.71052C135.333 4.35378 135.223 4.0138 135.004 3.69943C134.785 3.3831 134.485 3.15743 134.114 3.0303C133.763 2.90909 133.224 2.85095 132.469 2.85095H130.119V9.31954H131.589V6.77014H131.932C132.223 6.77014 132.443 6.82434 132.585 6.93176C132.745 7.04607 133.043 7.36733 133.553 8.25425L134.166 9.31954H135.843C135.62 9.50973 135.381 9.68514 135.112 9.83099C134.396 10.2212 133.639 10.4183 132.861 10.4183C132.084 10.4183 131.327 10.2212 130.611 9.83099C129.897 9.44371 129.335 8.89382 128.937 8.19906C128.538 7.50234 128.336 6.76324 128.336 6.00345C128.336 5.24366 128.542 4.49372 128.948 3.78615C129.353 3.08253 129.92 2.53363 130.635 2.15521C131.355 1.77384 132.104 1.58069 132.861 1.58069C133.619 1.58069 134.362 1.77384 135.085 2.15521C135.802 2.53363 136.37 3.08253 136.771 3.78517C137.176 4.49273 137.379 5.23873 137.379 6.00246C137.379 6.7662 137.179 7.50037 136.781 8.19808L136.784 8.20005ZM133.805 4.79231C133.805 4.9963 133.732 5.15496 133.579 5.27716C133.466 5.36684 133.197 5.47524 132.555 5.47524H131.592V4.13205H132.479C133.042 4.13205 133.283 4.17935 133.386 4.21877C133.522 4.271 133.623 4.3459 133.697 4.44937C133.77 4.54989 133.805 4.66223 133.805 4.79133V4.79231Z" fill="#FFFAF1"/>
</g>
<defs>
<clipPath id="clip0_1273_75">
<rect width="139" height="12" fill="white"/>
</clipPath>
</defs>
</svg>
